<svg width="465" height="109" viewBox="0 0 465 109" fill="none" xmlns="http://www.w3.org/2000/svg">
<path d="M400.36 61.9302C399.628 62.098 398.966 62.4861 398.461 63.0422C397.957 63.5983 397.636 64.2957 397.54 65.0402C392.65 64.0402 387.17 63.1902 382.99 65.9202C381.324 67.1078 379.899 68.6009 378.79 70.3202C375.59 74.8202 373.15 79.8402 369.79 84.2002C368.716 85.5862 367.528 86.8807 366.24 88.0702C361.624 82.0436 358.309 75.1239 356.507 67.7495C354.705 60.3751 354.454 52.7067 355.77 45.2302C360.142 46.3667 364.242 48.3659 367.83 51.1102C368.517 51.6868 369.261 52.1927 370.05 52.6202C371.066 53.0611 372.141 53.354 373.24 53.4902C380.696 54.7893 388.066 56.5392 395.31 58.7302C397.26 59.2902 399.41 60.1102 400.36 61.9302Z" fill="white"/>
<path d="M404.94 42.7202C404.24 44.7202 403.29 47.0902 401.22 47.7902C398.5 48.7102 395.95 46.2902 393.48 44.7902C386.98 40.8802 378.59 43.3302 371.14 41.8602C366.55 40.9602 362.32 38.5602 357.98 36.7902C359.278 33.0409 360.985 29.4459 363.07 26.0702L390.13 26.8702C393.35 26.9602 396.64 27.0802 399.66 28.2102C402.68 29.3402 405.41 31.7202 406.12 34.8602C406.64 37.5002 405.77 40.1902 404.94 42.7202Z" fill="white"/>
<path d="M396.73 20.7602C394.54 21.1547 392.3 21.1851 390.1 20.8502C387.55 20.3202 385.27 18.8502 382.7 18.3702C379.76 17.8702 376.79 18.8002 373.83 19.2002C371.865 19.4614 369.877 19.5184 367.9 19.3702C371.773 14.7885 376.375 10.8761 381.52 7.79022C382.68 8.79022 383.71 9.96022 384.8 11.0302C388.565 14.7439 393.142 17.5306 398.17 19.1702C398.81 19.8002 397.62 20.6502 396.73 20.7602Z" fill="white"/>
<path d="M422.05 1.41022C421.05 7.16022 420.15 14.4102 418.89 16.8102C417.97 18.5502 416.99 20.3602 415.35 21.4302C412.35 23.3702 408.35 22.2402 405.52 20.0902C402.69 17.9402 400.69 14.9502 398.07 12.5902C396.55 11.2302 394.84 10.1002 393.31 8.76022C391.891 7.43697 390.556 6.02763 389.31 4.54022L388.94 4.09022C399.45 -0.210605 411.036 -1.14692 422.1 1.41022H422.05Z" fill="white"/>
<path d="M455.59 24.9102C451.06 35.9102 443.19 48.3202 434.65 56.2302C430.34 60.2302 425.49 63.8502 422.54 68.9302C421.864 70.3297 420.989 71.6233 419.94 72.7702C419.412 73.3364 418.718 73.72 417.957 73.8656C417.197 74.0112 416.41 73.9113 415.71 73.5802C414.832 68.7489 414.757 63.8058 415.49 58.9502C415.892 55.6542 416.52 52.3898 417.37 49.1802C420.55 37.2902 426.87 26.3702 428.78 14.2902C429.292 10.7944 429.519 7.26282 429.46 3.73022C440.174 7.87828 449.314 15.287 455.59 24.9102Z" fill="white"/>
<path d="M464.44 54.7603C464.441 65.928 461.029 76.8293 454.661 86.0034C448.293 95.1776 439.273 102.186 428.81 106.09C425.47 99.5103 424.04 93.0903 429.21 87.4103C433.29 82.9603 440.51 76.3503 444.39 71.7203C447.14 68.4503 451.7 65.4603 453.25 61.4703C456.19 53.8969 459.127 46.3269 462.06 38.7603C463.64 43.9467 464.442 49.3386 464.44 54.7603Z" fill="white"/>
<path d="M397.08 108.07C389.234 106.221 381.897 102.652 375.6 97.6202C377.779 96.2475 379.515 94.2752 380.6 91.9402C381.71 89.5202 382.08 86.8102 383.3 84.4502C384.52 82.0902 387.08 80.0302 389.66 80.6802C391.8 81.2202 393.1 83.3602 393.93 85.4002C396.42 91.5102 396.72 98.2602 396.99 104.86C396.99 105.93 397.04 106.99 397.08 108.07Z" fill="white"/>
<path d="M26.0001 12.8602C30.4589 12.8068 34.8598 13.8727 38.8001 15.9602C42.5804 17.9399 45.7426 20.9222 47.9401 24.5802C50.122 28.2009 51.2638 32.353 51.2401 36.5802C51.2482 40.05 50.4822 43.478 48.9979 46.6143C47.5136 49.7507 45.3484 52.5165 42.6601 54.7102C39.9507 56.9305 36.7805 58.5191 33.3801 59.3602L33.3101 59.8202C38.2701 62.1735 42.6867 63.3469 46.5601 63.3402C47.9114 63.3476 49.2573 63.1693 50.5601 62.8102L50.8201 63.2102L43.3501 69.9502C35.8167 69.4569 27.7501 66.0602 19.1501 59.7602C15.5471 59.0613 12.1571 57.5307 9.25008 55.2902C6.35453 53.1066 4.01174 50.274 2.41008 47.0202C0.81928 43.8344 -0.0059442 40.3212 7.99248e-05 36.7602C-0.0110818 32.468 1.14703 28.2539 3.35008 24.5702C5.52493 20.8502 8.71669 17.8284 12.5501 15.8602C16.7232 13.7827 21.3396 12.7531 26.0001 12.8602ZM9.26008 36.7302C9.1735 38.8675 9.5334 40.9993 10.3168 42.9897C11.1002 44.9801 12.29 46.7853 13.8101 48.2902C16.8501 51.2502 20.8501 52.7269 25.8101 52.7202C28.7052 52.7721 31.5656 52.0837 34.1201 50.7202C36.5688 49.3978 38.5882 47.4027 39.9401 44.9702C41.3144 42.4705 42.0044 39.6521 41.9401 36.8002C42.0023 33.8849 41.3136 31.0025 39.9401 28.4302C38.6044 25.9881 36.5945 23.9816 34.1501 22.6502C31.5837 21.2801 28.7087 20.5914 25.8001 20.6502C20.8601 20.6502 16.8601 22.1269 13.8001 25.0802C10.7401 28.0336 9.22675 31.9169 9.26008 36.7302Z" fill="white"/>
<path d="M70.94 13.4602V40.4602C70.8416 42.7304 71.2694 44.9927 72.19 47.0702C73.1139 48.7822 74.5323 50.1761 76.26 51.0702C78.2741 52.1636 80.5389 52.7118 82.83 52.6602C85.2517 52.7362 87.6551 52.2178 89.83 51.1502C91.6276 50.2563 93.0974 48.818 94.03 47.0402C95.0247 44.7649 95.4798 42.2905 95.36 39.8102V13.4602H104.36V41.0202C104.36 47.2602 102.49 52.0569 98.75 55.4102C95.01 58.7635 89.72 60.4302 82.88 60.4102C79.0311 60.5054 75.2111 59.7222 71.71 58.1202C68.6787 56.7055 66.1574 54.3903 64.49 51.4902C62.7559 48.3961 61.8759 44.8965 61.94 41.3502V13.4602H70.94Z" fill="white"/>
<path d="M146.94 13.4602V20.4602H125.94V32.6502H146.06V39.6502H125.94V52.8402H147.42V59.8402H116.94V13.4602H146.94Z" fill="white"/>
<path d="M175.17 13.4602C179.051 13.2892 182.856 14.581 185.83 17.0802C187.175 18.2463 188.242 19.6983 188.953 21.3299C189.664 22.9615 190.001 24.7314 189.94 26.5102C190.005 28.9589 189.306 31.3671 187.94 33.4002C186.402 35.4887 184.299 37.0949 181.88 38.0302C183.411 38.8441 184.77 39.9479 185.88 41.2802C187.531 43.4476 188.964 45.7721 190.16 48.2202C192.993 53.8402 195.097 57.7135 196.47 59.8402H186.47C185.456 58.2629 184.525 56.6341 183.68 54.9602C181.977 51.528 180.091 48.1899 178.03 44.9602C177.101 43.5243 175.906 42.2788 174.51 41.2902C173.362 40.5897 172.034 40.2419 170.69 40.2902H167.44V59.8402H158.44V13.4602H175.17ZM173.17 33.2502C175.167 33.3629 177.136 32.7364 178.7 31.4902C179.369 30.8843 179.895 30.1379 180.241 29.3045C180.586 28.4711 180.743 27.5715 180.7 26.6702C180.765 25.7754 180.617 24.8779 180.27 24.0508C179.922 23.2236 179.385 22.4902 178.7 21.9102C177.04 20.7444 175.035 20.1736 173.01 20.2902H167.44V33.2902L173.17 33.2502Z" fill="white"/>
<path d="M227.3 12.8602C229.906 12.8575 232.504 13.1595 235.04 13.7602C237.867 14.4653 240.604 15.4885 243.2 16.8102V25.2902C240.702 23.813 238.045 22.6222 235.28 21.7402C232.821 21.0065 230.267 20.6392 227.7 20.6502C224.606 20.5905 221.543 21.2765 218.77 22.6502C216.193 23.9353 214.041 25.9349 212.57 28.4102C211.132 30.9399 210.375 33.8001 210.375 36.7102C210.375 39.6203 211.132 42.4805 212.57 45.0102C214.028 47.468 216.173 49.4459 218.74 50.7002C221.539 52.0708 224.624 52.7563 227.74 52.7002C230.212 52.7122 232.67 52.3446 235.03 51.6102C238.056 50.559 240.981 49.237 243.77 47.6602V56.0902C241.137 57.5127 238.353 58.6363 235.47 59.4402C232.582 60.152 229.614 60.4881 226.64 60.4402C222.1 60.521 217.607 59.5201 213.53 57.5202C209.756 55.6455 206.604 52.722 204.45 49.1002C202.257 45.4838 201.111 41.3295 201.14 37.1002C201.078 32.6719 202.256 28.3145 204.54 24.5202C206.786 20.8242 210.036 17.8419 213.91 15.9202C218.068 13.8544 222.657 12.8056 227.3 12.8602Z" fill="white"/>
<path d="M263.62 13.4602V40.4602C263.522 42.7304 263.949 44.9927 264.87 47.0702C265.793 48.7796 267.207 50.173 268.93 51.0702C270.947 52.1649 273.216 52.713 275.51 52.6602C277.932 52.7354 280.335 52.217 282.51 51.1502C284.308 50.2563 285.777 48.818 286.71 47.0402C287.696 44.7625 288.148 42.2894 288.03 39.8102V13.4602H297.03V41.0202C297.03 47.2602 295.16 52.0569 291.42 55.4102C287.68 58.7635 282.39 60.4302 275.55 60.4102C271.698 60.5055 267.875 59.7224 264.37 58.1202C261.34 56.7028 258.82 54.3882 257.15 51.4902C255.432 48.3815 254.572 44.8712 254.66 41.3202V13.4602H263.62Z" fill="white"/>
<path d="M323.05 12.8602C327.62 12.8841 332.109 14.0641 336.1 16.2902V24.2902C331.3 21.3902 327.04 19.9402 323.32 19.9402C321.462 19.8312 319.614 20.2879 318.02 21.2502C317.427 21.6193 316.939 22.1356 316.605 22.7489C316.27 23.3622 316.099 24.0516 316.11 24.7502C316.11 26.5036 317.297 28.1202 319.67 29.6002C320.337 30.0402 322.893 31.2802 327.34 33.3202C331.14 35.1069 333.883 37.1069 335.57 39.3202C337.278 41.5973 338.166 44.3848 338.09 47.2302C338.156 49.0585 337.802 50.8776 337.057 52.5484C336.312 54.2192 335.194 55.6975 333.79 56.8702C330.93 59.3169 327.217 60.5402 322.65 60.5402C320.065 60.5822 317.488 60.2452 315 59.5402C312.477 58.7083 310.063 57.5769 307.81 56.1702V47.2902C312.77 51.4102 317.437 53.4669 321.81 53.4602C323.688 53.5496 325.547 53.0534 327.13 52.0402C327.756 51.6286 328.268 51.0652 328.618 50.4025C328.967 49.7398 329.144 48.9994 329.13 48.2502C329.13 46.1002 327.96 44.3602 325.61 43.0002C323.657 41.9402 321.143 40.6702 318.07 39.1902C314.951 37.8879 312.17 35.8905 309.94 33.3502C308.155 31.1807 307.195 28.4496 307.23 25.6402C307.158 23.85 307.513 22.0683 308.266 20.4424C309.019 18.8166 310.148 17.3933 311.56 16.2902C314.48 14.0102 318.31 12.8669 323.05 12.8602Z" fill="white"/>
<path d="M142.33 73.7402V76.1602C139.368 74.3863 135.992 73.4241 132.54 73.3702C130.13 73.4004 127.782 74.1345 125.784 75.4822C123.786 76.8298 122.225 78.7322 121.294 80.9552C120.363 83.1783 120.103 85.6249 120.544 87.9942C120.986 90.3634 122.111 92.5518 123.78 94.2902C126.067 96.6035 129.183 97.7602 133.13 97.7602C135.757 97.8099 138.356 97.2268 140.71 96.0602V88.5902H134.87V86.8102H142.87V97.3902C139.819 98.9031 136.465 99.7032 133.06 99.7302C129.087 99.8441 125.232 98.3766 122.34 95.6502C120.986 94.3376 119.908 92.7677 119.17 91.0327C118.431 89.2977 118.047 87.4326 118.04 85.547C118.032 83.6614 118.402 81.7933 119.127 80.0525C119.851 78.3118 120.917 76.7334 122.26 75.4102C123.678 74.0774 125.345 73.0379 127.166 72.3515C128.987 71.665 130.925 71.3451 132.87 71.4102C136.154 71.5024 139.379 72.2969 142.33 73.7402Z" fill="white"/>
<path d="M166.94 71.7502H174.02C176.987 71.7502 179.253 72.3902 180.82 73.6702C181.591 74.2976 182.206 75.0959 182.616 76.0019C183.025 76.9078 183.218 77.8967 183.18 78.8902C183.18 82.0802 181.42 84.3202 177.92 85.6102C178.83 86.0402 180.05 87.4502 181.6 89.8202L187.84 99.3702H185.32L180.5 91.8002C179.517 90.0261 178.25 88.4249 176.75 87.0602C175.56 86.3609 174.188 86.0335 172.81 86.1202H169.08V99.3702H166.94V71.7502ZM169.08 73.5302V84.3402H173.67C175.556 84.4649 177.431 83.9697 179.01 82.9302C179.598 82.4422 180.07 81.8308 180.395 81.1395C180.719 80.4482 180.887 79.6939 180.887 78.9302C180.887 78.1665 180.719 77.4122 180.395 76.7209C180.07 76.0295 179.598 75.4182 179.01 74.9302C177.415 73.884 175.523 73.3855 173.62 73.5102L169.08 73.5302Z" fill="white"/>
<path d="M221.65 71.3902C223.569 71.3504 225.477 71.6943 227.261 72.4018C229.045 73.1093 230.67 74.1661 232.04 75.5102C233.384 76.8151 234.453 78.3766 235.183 80.102C235.912 81.8274 236.288 83.6818 236.288 85.5552C236.288 87.4286 235.912 89.2829 235.183 91.0084C234.453 92.7338 233.384 94.2953 232.04 95.6002C229.239 98.2531 225.528 99.7317 221.67 99.7317C217.812 99.7317 214.101 98.2531 211.3 95.6002C209.956 94.2953 208.887 92.7338 208.158 91.0084C207.428 89.2829 207.052 87.4286 207.052 85.5552C207.052 83.6818 207.428 81.8274 208.158 80.102C208.887 78.3766 209.956 76.8151 211.3 75.5102C212.663 74.1673 214.281 73.1109 216.058 72.4033C217.836 71.6957 219.737 71.3512 221.65 71.3902ZM221.73 97.7502C223.346 97.7851 224.951 97.4901 226.449 96.8831C227.947 96.2761 229.305 95.37 230.44 94.2202C232.714 91.9115 233.989 88.8009 233.989 85.5602C233.989 82.3195 232.714 79.2088 230.44 76.9002C229.306 75.7484 227.948 74.8411 226.45 74.234C224.952 73.6269 223.346 73.3329 221.73 73.3702C220.102 73.3314 218.483 73.6243 216.972 74.2312C215.461 74.8381 214.089 75.7462 212.94 76.9002C211.802 78.037 210.899 79.3869 210.283 80.8729C209.667 82.3588 209.35 83.9516 209.35 85.5602C209.35 87.1688 209.667 88.7616 210.283 90.2475C210.899 91.7335 211.802 93.0834 212.94 94.2202C214.089 95.3742 215.461 96.2823 216.972 96.8892C218.483 97.4961 220.102 97.789 221.73 97.7502Z" fill="white"/>
<path d="M280.54 71.7502H282.68V86.8102C282.68 90.9435 281.607 94.1302 279.46 96.3702C277.215 98.514 274.23 99.7102 271.125 99.7102C268.021 99.7102 265.035 98.514 262.79 96.3702C260.637 94.1502 259.56 91.1169 259.56 87.2702V71.7502H261.72V87.2302C261.72 90.5302 262.59 93.1002 264.34 94.9602C266.143 96.7567 268.585 97.7655 271.13 97.7655C273.675 97.7655 276.117 96.7567 277.92 94.9602C279.67 93.0802 280.54 90.4202 280.54 86.9602V71.7502Z" fill="white"/>
<path d="M307.04 71.7502H314.66C317.567 71.7502 319.797 72.4168 321.35 73.7502C322.119 74.4041 322.729 75.2251 323.133 76.1505C323.537 77.076 323.724 78.0814 323.68 79.0902C323.724 80.1126 323.535 81.1316 323.128 82.0705C322.721 83.0093 322.106 83.8436 321.33 84.5102C319.77 85.8435 317.48 86.5102 314.46 86.5102H309.18V99.4202H307.04V71.7502ZM309.18 73.5302V84.6802H314.32C316.189 84.8085 318.045 84.2933 319.58 83.2202C320.142 82.6962 320.59 82.0623 320.896 81.3578C321.202 80.6533 321.36 79.8934 321.36 79.1252C321.36 78.357 321.202 77.5971 320.896 76.8926C320.59 76.1881 320.142 75.5542 319.58 75.0302C318.145 73.9508 316.372 73.4189 314.58 73.5302H309.18Z" fill="white"/>
</svg>
