<svg width="110" height="109" viewBox="0 0 110 109" fill="none" xmlns="http://www.w3.org/2000/svg">
<path d="M45.4202 61.9302C44.6885 62.098 44.0259 62.4861 43.5216 63.0422C43.0174 63.5983 42.6958 64.2957 42.6002 65.0402C37.7102 64.0402 32.2302 63.1902 28.0502 65.9202C26.3843 67.1078 24.9591 68.6009 23.8502 70.3202C20.6502 74.8202 18.2102 79.8402 14.8502 84.2002C13.776 85.5862 12.5886 86.8807 11.3002 88.0702C6.6839 82.0436 3.36964 75.1239 1.56735 67.7495C-0.234942 60.3751 -0.485976 52.7067 0.830196 45.2302C5.20198 46.3667 9.3024 48.3659 12.8902 51.1102C13.5776 51.6868 14.3214 52.1927 15.1102 52.6202C16.1265 53.0611 17.2008 53.354 18.3002 53.4902C25.756 54.7893 33.1262 56.5392 40.3702 58.7302C42.3202 59.2902 44.4702 60.1102 45.4202 61.9302Z" fill="#2C2D48"/>
<path d="M50.0002 42.7202C49.3002 44.7202 48.3502 47.0902 46.2802 47.7902C43.5602 48.7102 41.0102 46.2902 38.5402 44.7902C32.0402 40.8802 23.6502 43.3302 16.2002 41.8602C11.6102 40.9602 7.38022 38.5602 3.04022 36.7902C4.33836 33.0409 6.0453 29.4459 8.13022 26.0702L35.1902 26.8702C38.4102 26.9602 41.7002 27.0802 44.7202 28.2102C47.7402 29.3402 50.4702 31.7202 51.1802 34.8602C51.7002 37.5002 50.8302 40.1902 50.0002 42.7202Z" fill="#2C2D48"/>
<path d="M41.7902 20.7602C39.6002 21.1547 37.3601 21.1851 35.1602 20.8502C32.6102 20.3202 30.3302 18.8502 27.7602 18.3702C24.8202 17.8702 21.8502 18.8002 18.8902 19.2002C16.9247 19.4614 14.9374 19.5184 12.9602 19.3702C16.8335 14.7885 21.4351 10.8761 26.5802 7.79022C27.7402 8.79022 28.7702 9.96022 29.8602 11.0302C33.6252 14.7439 38.2025 17.5306 43.2302 19.1702C43.8702 19.8002 42.6802 20.6502 41.7902 20.7602Z" fill="#2C2D48"/>
<path d="M67.1102 1.41022C66.1102 7.16022 65.2103 14.4102 63.9503 16.8102C63.0303 18.5502 62.0502 20.3602 60.4102 21.4302C57.4102 23.3702 53.4102 22.2402 50.5802 20.0902C47.7502 17.9402 45.7502 14.9502 43.1302 12.5902C41.6102 11.2302 39.9002 10.1002 38.3702 8.76022C36.9516 7.43697 35.6157 6.02763 34.3702 4.54022L34.0002 4.09022C44.5105 -0.210605 56.0957 -1.14692 67.1602 1.41022H67.1102Z" fill="#2C2D48"/>
<path d="M100.65 24.9102C96.1202 35.9102 88.2502 48.3202 79.7102 56.2302C75.4002 60.2302 70.5502 63.8502 67.6002 68.9302C66.9247 70.3297 66.0488 71.6233 65.0002 72.7702C64.4722 73.3364 63.7778 73.72 63.0175 73.8656C62.2571 74.0112 61.4701 73.9113 60.7702 73.5802C59.892 68.7489 59.8177 63.8058 60.5502 58.9502C60.9517 55.6542 61.5799 52.3898 62.4302 49.1802C65.6102 37.2902 71.9302 26.3702 73.8402 14.2902C74.3519 10.7944 74.5793 7.26282 74.5202 3.73022C85.2341 7.87828 94.3743 15.287 100.65 24.9102Z" fill="#485987"/>
<path d="M109.5 54.7603C109.502 65.928 106.09 76.8293 99.7214 86.0034C93.3533 95.1776 84.3333 102.186 73.8702 106.09C70.5302 99.5103 69.1002 93.0903 74.2702 87.4103C78.3502 82.9603 85.5703 76.3503 89.4503 71.7203C92.2003 68.4503 96.7602 65.4603 98.3102 61.4703C101.25 53.8969 104.187 46.3269 107.12 38.7603C108.7 43.9467 109.502 49.3386 109.5 54.7603Z" fill="#D4A418"/>
<path d="M42.1402 108.07C34.2944 106.221 26.9576 102.652 20.6602 97.6203C22.8387 96.2475 24.5748 94.2753 25.6602 91.9403C26.7702 89.5203 27.1402 86.8103 28.3602 84.4503C29.5802 82.0903 32.1402 80.0303 34.7202 80.6803C36.8602 81.2203 38.1602 83.3603 38.9902 85.4003C41.4802 91.5103 41.7802 98.2603 42.0502 104.86C42.0502 105.93 42.1002 106.99 42.1402 108.07Z" fill="#2C2D48"/>
</svg>
