<svg width="504" height="144" viewBox="0 0 504 144" fill="none" xmlns="http://www.w3.org/2000/svg">
<path d="M419.42 78.64C418.688 78.8078 418.026 79.1959 417.521 79.752C417.017 80.3081 416.696 81.0054 416.6 81.75C411.71 80.75 406.23 79.9 402.05 82.63C400.384 83.8176 398.959 85.3107 397.85 87.03C394.65 91.53 392.21 96.55 388.85 100.91C387.776 102.296 386.588 103.59 385.3 104.78C380.684 98.7534 377.369 91.8337 375.567 84.4593C373.765 77.0849 373.514 69.4165 374.83 61.94C379.202 63.0765 383.302 65.0756 386.89 67.82C387.577 68.3966 388.321 68.9025 389.11 69.33C390.126 69.7708 391.201 70.0638 392.3 70.2C399.756 71.4991 407.126 73.249 414.37 75.44C416.32 76 418.47 76.82 419.42 78.64Z" fill="#2C2D48"/>
<path d="M424 59.43C423.3 61.43 422.35 63.8 420.28 64.5C417.56 65.42 415.01 63 412.54 61.5C406.04 57.59 397.65 60.04 390.2 58.57C385.61 57.67 381.38 55.27 377.04 53.5C378.338 49.7507 380.045 46.1557 382.13 42.78L409.19 43.58C412.41 43.67 415.7 43.79 418.72 44.92C421.74 46.05 424.47 48.43 425.18 51.57C425.7 54.21 424.83 56.9 424 59.43Z" fill="#2C2D48"/>
<path d="M415.79 37.47C413.6 37.8644 411.36 37.8948 409.16 37.56C406.61 37.03 404.33 35.56 401.76 35.08C398.82 34.58 395.85 35.51 392.89 35.91C390.925 36.1712 388.937 36.2282 386.96 36.08C390.833 31.4983 395.435 27.5859 400.58 24.5C401.74 25.5 402.77 26.67 403.86 27.74C407.625 31.4536 412.202 34.2404 417.23 35.88C417.87 36.51 416.68 37.36 415.79 37.47Z" fill="#2C2D48"/>
<path d="M441.11 18.12C440.11 23.87 439.21 31.12 437.95 33.52C437.03 35.26 436.05 37.07 434.41 38.14C431.41 40.08 427.41 38.95 424.58 36.8C421.75 34.65 419.75 31.66 417.13 29.3C415.61 27.94 413.9 26.81 412.37 25.47C410.951 24.1467 409.615 22.7374 408.37 21.25L408 20.8C418.51 16.4992 430.095 15.5629 441.16 18.12H441.11Z" fill="#2C2D48"/>
<path d="M474.65 41.62C470.12 52.62 462.25 65.03 453.71 72.94C449.4 76.94 444.55 80.56 441.6 85.64C440.924 87.0395 440.049 88.3331 439 89.48C438.472 90.0462 437.778 90.4298 437.017 90.5754C436.257 90.721 435.47 90.621 434.77 90.29C433.892 85.4587 433.817 80.5155 434.55 75.66C434.952 72.364 435.58 69.0996 436.43 65.89C439.61 54 445.93 43.08 447.84 31C448.352 27.5042 448.579 23.9726 448.52 20.44C459.234 24.5881 468.374 31.9968 474.65 41.62Z" fill="#485987"/>
<path d="M483.5 71.47C483.501 82.6377 480.089 93.539 473.721 102.713C467.353 111.887 458.333 118.896 447.87 122.8C444.53 116.22 443.1 109.8 448.27 104.12C452.35 99.67 459.57 93.06 463.45 88.43C466.2 85.16 470.76 82.17 472.31 78.18C475.25 70.6067 478.187 63.0367 481.12 55.47C482.7 60.6564 483.502 66.0484 483.5 71.47Z" fill="#D4A418"/>
<path d="M416.14 124.78C408.294 122.931 400.957 119.362 394.66 114.33C396.838 112.957 398.575 110.985 399.66 108.65C400.77 106.23 401.14 103.52 402.36 101.16C403.58 98.8 406.14 96.74 408.72 97.39C410.86 97.93 412.16 100.07 412.99 102.11C415.48 108.22 415.78 114.97 416.05 121.57C416.05 122.64 416.1 123.7 416.14 124.78Z" fill="#2C2D48"/>
<path d="M45.06 29.57C49.5188 29.5166 53.9197 30.5825 57.86 32.67C61.6403 34.6497 64.8025 37.632 67 41.29C69.1819 44.9107 70.3237 49.0627 70.3 53.29C70.3081 56.7598 69.5421 60.1878 68.0578 63.3241C66.5735 66.4605 64.4083 69.2263 61.72 71.42C59.0106 73.6403 55.8404 75.2288 52.44 76.07L52.37 76.53C57.33 78.8833 61.7467 80.0567 65.62 80.05C66.9713 80.0574 68.3172 79.8791 69.62 79.52L69.88 79.92L62.41 86.66C54.8767 86.1667 46.81 82.77 38.21 76.47C34.607 75.7711 31.217 74.2405 28.31 72C25.4144 69.8164 23.0717 66.9838 21.47 63.73C19.8792 60.5441 19.054 57.0309 19.06 53.47C19.0488 49.1778 20.2069 44.9637 22.41 41.28C24.5848 37.56 27.7766 34.5382 31.61 32.57C35.7831 30.4925 40.3995 29.4628 45.06 29.57ZM28.32 53.44C28.2334 55.5773 28.5933 57.7091 29.3767 59.6995C30.1601 61.6899 31.3499 63.4951 32.87 65C35.91 67.96 39.91 69.4367 44.87 69.43C47.7651 69.4819 50.6255 68.7935 53.18 67.43C55.6287 66.1076 57.6481 64.1125 59 61.68C60.3743 59.1803 61.0643 56.3619 61 53.51C61.0622 50.5946 60.3735 47.7123 59 45.14C57.6643 42.6978 55.6544 40.6914 53.21 39.36C50.6436 37.9898 47.7686 37.3012 44.86 37.36C39.92 37.36 35.92 38.8367 32.86 41.79C29.8 44.7433 28.2867 48.6267 28.32 53.44Z" fill="#2C2D48"/>
<path d="M90 30.17V57.17C89.9016 59.4402 90.3294 61.7025 91.25 63.78C92.1739 65.492 93.5922 66.8859 95.32 67.78C97.334 68.8734 99.5988 69.4215 101.89 69.37C104.312 69.446 106.715 68.9276 108.89 67.86C110.688 66.966 112.157 65.5278 113.09 63.75C114.085 61.4747 114.54 59.0003 114.42 56.52V30.17H123.42V57.73C123.42 63.97 121.55 68.7667 117.81 72.12C114.07 75.4733 108.78 77.14 101.94 77.12C98.091 77.2151 94.271 76.432 90.77 74.83C87.7386 73.4153 85.2173 71.1001 83.55 68.2C81.8159 65.1059 80.9358 61.6063 81 58.06V30.17H90Z" fill="#2C2D48"/>
<path d="M166 30.17V37.17H145V49.36H165.12V56.36H145V69.55H166.48V76.55H136V30.17H166Z" fill="#2C2D48"/>
<path d="M194.23 30.17C198.111 29.999 201.915 31.2908 204.89 33.79C206.235 34.9561 207.301 36.4081 208.013 38.0397C208.724 39.6713 209.061 41.4412 209 43.22C209.065 45.6687 208.366 48.0768 207 50.11C205.462 52.1985 203.359 53.8047 200.94 54.74C202.471 55.5539 203.83 56.6577 204.94 57.99C206.591 60.1574 208.024 62.4819 209.22 64.93C212.053 70.55 214.157 74.4233 215.53 76.55H205.53C204.516 74.9727 203.585 73.3439 202.74 71.67C201.037 68.2378 199.151 64.8997 197.09 61.67C196.16 60.2341 194.966 58.9885 193.57 58C192.422 57.2995 191.094 56.9517 189.75 57H186.5V76.55H177.5V30.17H194.23ZM192.23 49.96C194.227 50.0726 196.195 49.4461 197.76 48.2C198.429 47.5941 198.955 46.8476 199.3 46.0142C199.646 45.1809 199.803 44.2812 199.76 43.38C199.825 42.4852 199.677 41.5877 199.33 40.7606C198.982 39.9334 198.444 39.2 197.76 38.62C196.1 37.4542 194.095 36.8834 192.07 37H186.5V50L192.23 49.96Z" fill="#2C2D48"/>
<path d="M246.36 29.57C248.966 29.5673 251.564 29.8693 254.1 30.47C256.926 31.1751 259.664 32.1983 262.26 33.52V42C259.762 40.5228 257.105 39.332 254.34 38.45C251.881 37.7162 249.326 37.3489 246.76 37.36C243.666 37.3003 240.603 37.9863 237.83 39.36C235.253 40.6451 233.101 42.6447 231.63 45.12C230.191 47.6497 229.435 50.5098 229.435 53.42C229.435 56.3301 230.191 59.1903 231.63 61.72C233.088 64.1778 235.232 66.1557 237.8 67.41C240.599 68.7806 243.684 69.4661 246.8 69.41C249.271 69.422 251.73 69.0544 254.09 68.32C257.116 67.2688 260.041 65.9467 262.83 64.37V72.8C260.197 74.2224 257.413 75.3461 254.53 76.15C251.642 76.8618 248.674 77.1979 245.7 77.15C241.16 77.2308 236.666 76.2298 232.59 74.23C228.816 72.3553 225.664 69.4317 223.51 65.81C221.317 62.1936 220.171 58.0393 220.2 53.81C220.138 49.3817 221.316 45.0243 223.6 41.23C225.846 37.534 229.095 34.5517 232.97 32.63C237.128 30.5642 241.717 29.5154 246.36 29.57Z" fill="#2C2D48"/>
<path d="M282.68 30.17V57.17C282.582 59.4402 283.009 61.7025 283.93 63.78C284.853 65.4894 286.267 66.8828 287.99 67.78C290.007 68.8747 292.276 69.4228 294.57 69.37C296.992 69.4452 299.395 68.9268 301.57 67.86C303.368 66.966 304.837 65.5278 305.77 63.75C306.756 61.4723 307.208 58.9991 307.09 56.52V30.17H316.09V57.73C316.09 63.97 314.22 68.7667 310.48 72.12C306.74 75.4733 301.45 77.14 294.61 77.12C290.758 77.2153 286.934 76.4321 283.43 74.83C280.4 73.4126 277.88 71.098 276.21 68.2C274.492 65.0912 273.632 61.5809 273.72 58.03V30.17H282.68Z" fill="#2C2D48"/>
<path d="M342.11 29.57C346.68 29.5939 351.169 30.7739 355.16 33V41C350.36 38.1 346.1 36.65 342.38 36.65C340.522 36.541 338.674 36.9977 337.08 37.96C336.487 38.3291 335.999 38.8454 335.664 39.4587C335.33 40.072 335.159 40.7614 335.17 41.46C335.17 43.2133 336.357 44.83 338.73 46.31C339.397 46.75 341.953 47.99 346.4 50.03C350.2 51.8167 352.943 53.8167 354.63 56.03C356.338 58.307 357.226 61.0946 357.15 63.94C357.216 65.7683 356.862 67.5874 356.117 69.2582C355.372 70.929 354.254 72.4073 352.85 73.58C349.99 76.0267 346.277 77.25 341.71 77.25C339.125 77.2919 336.548 76.955 334.06 76.25C331.537 75.4181 329.123 74.2867 326.87 72.88V64C331.83 68.12 336.497 70.1767 340.87 70.17C342.748 70.2594 344.607 69.7632 346.19 68.75C346.816 68.3384 347.328 67.7749 347.678 67.1123C348.027 66.4496 348.204 65.7092 348.19 64.96C348.19 62.81 347.02 61.07 344.67 59.71C342.717 58.65 340.203 57.38 337.13 55.9C334.011 54.5977 331.23 52.6002 329 50.06C327.215 47.8905 326.255 45.1593 326.29 42.35C326.218 40.5597 326.573 38.7781 327.326 37.1522C328.079 35.5264 329.208 34.1031 330.62 33C333.54 30.72 337.37 29.5767 342.11 29.57Z" fill="#2C2D48"/>
<path d="M161.39 90.45V92.87C158.428 91.0962 155.052 90.1339 151.6 90.08C149.19 90.1103 146.842 90.8444 144.844 92.192C142.846 93.5397 141.285 95.4421 140.354 97.6651C139.423 99.8881 139.163 102.335 139.604 104.704C140.046 107.073 141.171 109.262 142.84 111C145.127 113.313 148.243 114.47 152.19 114.47C154.816 114.52 157.416 113.937 159.77 112.77V105.3H153.93V103.52H161.93V114.1C158.879 115.613 155.525 116.413 152.12 116.44C148.147 116.554 144.292 115.086 141.4 112.36C140.046 111.047 138.968 109.478 138.23 107.743C137.491 106.008 137.107 104.142 137.1 102.257C137.092 100.371 137.462 98.5032 138.187 96.7624C138.911 95.0216 139.977 93.4432 141.32 92.12C142.738 90.7872 144.405 89.7477 146.226 89.0613C148.047 88.3748 149.985 88.055 151.93 88.12C155.214 88.2122 158.439 89.0067 161.39 90.45Z" fill="#2C2D48"/>
<path d="M186 88.46H193.08C196.047 88.46 198.313 89.1 199.88 90.38C200.651 91.0074 201.266 91.8057 201.676 92.7117C202.085 93.6176 202.278 94.6065 202.24 95.6C202.24 98.79 200.48 101.03 196.98 102.32C197.89 102.75 199.11 104.16 200.66 106.53L206.9 116.08H204.38L199.56 108.51C198.577 106.736 197.31 105.135 195.81 103.77C194.62 103.071 193.248 102.743 191.87 102.83H188.14V116.08H186V88.46ZM188.14 90.24V101.05H192.73C194.616 101.175 196.491 100.68 198.07 99.64C198.657 99.152 199.13 98.5406 199.455 97.8493C199.779 97.158 199.947 96.4037 199.947 95.64C199.947 94.8763 199.779 94.122 199.455 93.4307C199.13 92.7393 198.657 92.128 198.07 91.64C196.475 90.5938 194.583 90.0953 192.68 90.22L188.14 90.24Z" fill="#2C2D48"/>
<path d="M240.71 88.1C242.629 88.0602 244.537 88.4041 246.321 89.1116C248.105 89.8191 249.73 90.8759 251.1 92.22C252.444 93.5249 253.513 95.0864 254.242 96.8118C254.972 98.5373 255.348 100.392 255.348 102.265C255.348 104.138 254.972 105.993 254.242 107.718C253.513 109.444 252.444 111.005 251.1 112.31C248.299 114.963 244.588 116.442 240.73 116.442C236.872 116.442 233.161 114.963 230.36 112.31C229.016 111.005 227.947 109.444 227.218 107.718C226.488 105.993 226.112 104.138 226.112 102.265C226.112 100.392 226.488 98.5373 227.218 96.8118C227.947 95.0864 229.016 93.5249 230.36 92.22C231.723 90.8771 233.341 89.8207 235.118 89.1131C236.896 88.4055 238.797 88.061 240.71 88.1ZM240.79 114.46C242.406 114.495 244.011 114.2 245.509 113.593C247.007 112.986 248.365 112.08 249.5 110.93C251.774 108.621 253.049 105.511 253.049 102.27C253.049 99.0293 251.774 95.9186 249.5 93.61C248.366 92.4583 247.008 91.5509 245.51 90.9438C244.012 90.3367 242.406 90.0427 240.79 90.08C239.162 90.0412 237.543 90.3341 236.032 90.941C234.521 91.5479 233.149 92.456 232 93.61C230.862 94.7468 229.959 96.0967 229.343 97.5827C228.727 99.0686 228.41 100.661 228.41 102.27C228.41 103.879 228.727 105.471 229.343 106.957C229.959 108.443 230.862 109.793 232 110.93C233.149 112.084 234.521 112.992 236.032 113.599C237.543 114.206 239.162 114.499 240.79 114.46Z" fill="#2C2D48"/>
<path d="M299.6 88.46H301.74V103.52C301.74 107.653 300.667 110.84 298.52 113.08C296.275 115.224 293.289 116.42 290.185 116.42C287.081 116.42 284.095 115.224 281.85 113.08C279.697 110.86 278.62 107.827 278.62 103.98V88.46H280.78V103.94C280.78 107.24 281.65 109.81 283.4 111.67C285.203 113.467 287.645 114.475 290.19 114.475C292.735 114.475 295.177 113.467 296.98 111.67C298.73 109.79 299.6 107.13 299.6 103.67V88.46Z" fill="#2C2D48"/>
<path d="M326.1 88.46H333.72C336.627 88.46 338.857 89.1267 340.41 90.46C341.179 91.1139 341.789 91.9349 342.193 92.8603C342.597 93.7858 342.784 94.7912 342.74 95.8C342.784 96.8224 342.595 97.8414 342.188 98.7803C341.781 99.7192 341.166 100.553 340.39 101.22C338.83 102.553 336.54 103.22 333.52 103.22H328.24V116.13H326.1V88.46ZM328.24 90.24V101.39H333.38C335.249 101.518 337.105 101.003 338.64 99.93C339.202 99.406 339.65 98.7721 339.956 98.0676C340.262 97.3631 340.42 96.6032 340.42 95.835C340.42 95.0668 340.262 94.3069 339.956 93.6024C339.65 92.8979 339.202 92.264 338.64 91.74C337.205 90.6606 335.432 90.1287 333.64 90.24H328.24Z" fill="#2C2D48"/>
</svg>
